<svg id="LogoType" xmlns="http://www.w3.org/2000/svg" viewBox="0 0 500 150">
<path class="cc-fil" d="M2.6,111.6L2.6,111.6c0-6.3,4.7-11.4,11.1-11.4c4.1,0,6.4,1.4,8.6,3.5l-1.7,1.8c-1.8-1.7-4-3-6.9-3
	c-4.9,0-8.5,4-8.5,9v0.1c0,5.1,3.6,9.1,8.5,9.1c3,0,5-1.2,7.1-3.1l1.6,1.6c-2.3,2.3-4.9,3.8-8.8,3.8C7.3,122.9,2.6,118,2.6,111.6z"
	/>
<path class="cc-fil" d="M43.8,111.6L43.8,111.6c0-6.2,4.6-11.4,11.2-11.4c6.7,0,11.2,5.3,11.2,11.3c0,0,0,0,0,0.1
	c0,6.1-4.6,11.4-11.2,11.4C48.3,122.9,43.8,117.7,43.8,111.6z M63.7,111.6L63.7,111.6c0-5.1-3.6-9.2-8.7-9.2s-8.6,4.1-8.6,9v0.1
	c0,5,3.6,9.1,8.7,9.1C60.2,120.7,63.7,116.7,63.7,111.6z"/>
<path class="cc-fil" d="M88.6,100.5H91l13.9,17.7v-17.7h2.4v22.1h-2L91,104.5v18.1h-2.4L88.6,100.5L88.6,100.5z"/>
<path class="cc-fil" d="M133.9,100.5h15.9v2.3h-13.4v7.9h10.3v2.2h-10.3v9.6h-2.5V100.5z"/>
<path class="cc-fil" d="M172.7,100.5h14.4v2.2h-11.9v7.5h8.9v2.2h-8.9v7.7h13.6v2.2h-16.1V100.5z"/>
<path class="cc-fil" d="M212.1,100.5h7.7c6.9,0,11.8,4.8,11.8,10.9v0.1c0,6.2-4.8,11-11.8,11h-7.7V100.5z M219.7,120.3
	c5.6,0,9.1-3.7,9.1-8.7v-0.1c0-4.9-3.5-8.7-9.1-8.7h-5.2v17.4L219.7,120.3L219.7,120.3z"/>
<path class="cc-fil" d="M255.4,100.5h14.4v2.2h-11.9v7.5h8.9v2.2h-8.9v7.7h13.6v2.2h-16.1V100.5z"/>
<path class="cc-fil" d="M294.7,100.5h9.5c2.7,0,4.9,0.8,6.3,2.2c1.1,1.1,1.7,2.6,1.7,4.4v0.1c0,3.6-2.5,5.8-6,6.4l6.8,9h-3l-6.4-8.6
	h-0.1h-6.3v8.6h-2.5L294.7,100.5L294.7,100.5z M304,111.8c3.3,0,5.7-1.7,5.7-4.6v-0.1c0-2.7-2.1-4.4-5.7-4.4h-6.8v8.9L304,111.8
	L304,111.8z"/>
<path class="cc-fil" d="M343.4,100.3h2.3l10,22.2h-2.6l-2.5-5.9h-12.1l-2.6,5.9h-2.6L343.4,100.3z M349.5,114.5l-5-11.2l-5.1,11.2
	H349.5z"/>
<path class="cc-fil" d="M379.8,102.8h-7.4v-2.3h17.3v2.3h-7.4v19.8h-2.5L379.8,102.8L379.8,102.8z"/>
<path class="cc-fil" d="M412.7,100.5h2.5v22.1h-2.5V100.5z"/>
<path class="cc-fil" d="M437.6,111.6L437.6,111.6c0-6.2,4.6-11.4,11.2-11.4s11.2,5.3,11.2,11.3c0,0,0,0,0,0.1c0,6.1-4.6,11.4-11.2,11.4
	C442.1,122.9,437.6,117.7,437.6,111.6z M457.6,111.6L457.6,111.6c0-5.1-3.6-9.2-8.7-9.2c-5.1,0-8.6,4.1-8.6,9v0.1
	c0,5,3.6,9.1,8.7,9.1C454.1,120.6,457.6,116.7,457.6,111.6z"/>
<path class="cc-fil" d="M479.3,100.5h2.3l13.9,17.7v-17.7h2.4v22.1h-2l-14.3-18.1v18.1h-2.4v-22.1H479.3z"/>
<path class="cc-fil" d="M152,21.5h47.2v7.8h-38.7v14.5h29.6v7.8h-29.6v27.7h41.2v7.8H152V21.5z"/>
<path class="cc-fil" d="M297.4,29.3h-19.9v-7.8h51.4v7.8h-23V87h-8.5V29.3z"/>
<path class="cc-fil" d="M347.6,33.9h0.2c0,0,1.2,1.3,4.1,1.3c2.9,0,4.1-1.3,4.1-1.3h0.2v53h-8.5L347.6,33.9L347.6,33.9z"/>
<path class="cc-fil" d="M371.3,21.5h9.5l17,37.6c0.8,1.7,1.5,3.4,2.1,5.2c1.5,3.7,2.6,6.9,3.4,9.3h0.4c0.4-1.4,0.9-2.8,1.4-4.2l1.6-4.6
	c0.6-1.6,1.4-3.3,2.1-5.1l17.2-38.2h9l-30,66.4h-4.1L371.3,21.5z"/>
<path class="cc-fil" d="M448.6,21.5h47.2v7.8h-38.7v14.5h29.6v7.8h-29.6v27.7h41.2v7.8h-49.7V21.5z"/>
<path class="cc-fil" d="M275.8,86.3h-9.5l-17-37.6c-0.8-1.7-1.5-3.4-2.1-5.2c-1.5-3.7-2.6-6.9-3.4-9.3h-0.4c-0.4,1.4-0.9,2.8-1.4,4.2
	l-1.6,4.6c-0.6,1.6-1.4,3.3-2.1,5.1l-17.2,38.2h-9.2l30-66.4h4.1L275.8,86.3z"/>
<path class="cc-fil" d="M266.9,70.5v8.8h-46.2v-8.8H266.9z"/>
<path class="cc-fil" d="M54.4,32.3c-4.5-2.7-9.7-4.1-15.9-4.1c-7.3,0-13.5,2.4-18.5,7.2c-5.2,5-7.8,10.9-7.8,18.1
	c0,7.5,2.6,13.8,7.9,18.9s11.7,7.7,19.1,7.7c5.5,0,10.8-1.4,16.3-4.2c1.6-0.8,2.9-1.7,4.2-2.6l3.3,6.4c-4.5,3.8-10.3,6.4-17.4,7.5
	c-2.3,0.4-4.7,0.5-7.1,0.5c-4.9,0-9.4-0.8-13.7-2.4s-8-3.8-11.2-6.8c-3.2-2.9-5.8-6.4-7.6-10.4S3.1,60,3.1,56s0.4-7.6,1.3-10.6
	c0.8-3,2-5.8,3.6-8.3c1.5-2.5,3.4-4.9,5.7-6.9s4.7-3.7,7.3-5.2c5.6-2.9,11.8-4.5,18.3-4.5c8.9,0,16.7,2.5,23.2,7.7v7.1h-7.4
	L54.4,32.3z"/>
<path class="cc-fil" d="M357.6,24.2c0,7.5-11.4,7.5-11.4,0S357.6,16.7,357.6,24.2C357.6,25.9,357.6,22.4,357.6,24.2z"/>
<g>
	<path class="cc-fil" d="M123.4,24.4c-4.2-1.9-10.1-2.8-17.8-2.8H81.4v65.3h8.5V54.8h19.7c11.2,0,17.1-5.9,18.8-8.1
		c1.9-2.5,2.8-6.7,2.8-9.3C131.3,31.1,128.6,26.9,123.4,24.4z M120.7,42.2c-2.6,3.1-5.9,4.7-12.9,4.7H89.9V29.3h14.2
		c5.3,0,9.2,0.4,12,1.3c1.8,0.6,3.2,1.4,4.5,2.5c1.2,1.1,1.7,2.6,1.7,4.5C122.2,39.6,121.7,41.1,120.7,42.2z"/>
</g>
<polygon class="cc-fil" points="115,47 107.8,51.6 130.7,87 140.8,87 "/>
</svg>
