<svg id="Layer_1" xmlns="http://www.w3.org/2000/svg" viewBox="0 0 150 150">
<polygon id="star_2_" class="cc-fil" points="77.6,11.8 80.4,14.8 76.4,13.8 75.2,17.8 74,13.8 69.9,14.8 72.8,11.8 69.9,8.7 74,9.7 75.2,5.7 
	76.4,9.7 80.4,8.7 "/>
<path id="squiggle_2_" class="cc-fil" fill-rule="evenodd" clip-rule="evenodd" d="M75.1,141.8c-2,0-3.8,3.2-5.4,3.6c-1.9,0.5-3.5-0.3-5.1-1.8c-0.8-0.7-1.5-1.7-2.5-1.8
	c-2.3-0.3-3.6,4.2-7.3,3.7c-2.2-0.3-4-3.5-5.8-3.6c-2.5-0.1-3.1,2.8-5.4,3.5c-7.9,2.1-6.9-10.5,0.4-7.5c1.7,0.7,2.6,3.1,4.7,3.3
	c2.6,0.3,3.9-4.7,8-3.6c2,0.5,3.2,3.4,5.3,3.6c1.8,0.1,3.3-3.1,5.3-3.6c3.8-1,5.2,3.5,7.9,3.6h0.1c2.7-0.1,4.1-4.6,7.9-3.6
	c2,0.5,3.5,3.7,5.3,3.6c2.1-0.1,3.2-3.1,5.3-3.6c4.1-1.1,5.4,3.9,8,3.6c2.1-0.2,3-2.6,4.7-3.3c7.3-3,8.3,9.6,0.4,7.5
	c-2.2-0.6-2.9-3.5-5.4-3.5c-1.9,0-3.6,3.4-5.8,3.6c-3.7,0.4-5-4-7.3-3.7c-1,0.1-1.7,1.1-2.5,1.8c-1.7,1.4-3.3,2.3-5.1,1.8
	c-1.6-0.4-3.4-3.6-5.4-3.6H75.1z"/>
<path class="cc-fil" d="M61,77.9C61.1,77.9,61.1,77.9,61,77.9C61.1,77.9,61,77.9,61,77.9z"/>
<path class="cc-fil" d="M61.4,77.9C61.3,77.9,61.3,77.9,61.4,77.9C61.3,77.9,61.3,77.9,61.4,77.9z"/>
<path class="cc-fil" d="M61.1,77.9C61.1,77.9,61.1,77.9,61.1,77.9c-0.1,0,0.3,0,0.2,0c0,0,0,0,0,0c0,0-0.1,0-0.1,0
	C61.2,77.9,61.2,77.9,61.1,77.9z"/>
<g>
	<path class="cc-fil" d="M36.4,36.3c-2.4,0.7-2.8,1.9-2.5,2.9c-2.3,2-0.4,4-0.4,4c0.3-1.1,1.1-1.6,1.7-1.7c0,0.1,0.1,0.1,0.1,0.2
		c0.4,0.5,3.1,0.3,3.1,0.3c0.9,0.4,1.6,0.5,1.6,0.5s-0.4,0.3-0.6,1.1c-0.1,0.5,0.5,1.2-0.1,1.6c-0.5,0.5-1.4-0.5-1.4-0.5
		c0.3,3.3,3.4,2.5,4.1,2.1c0.2-0.2,0.7-0.5,1.2-0.8c0.5-0.3,0.9-0.3,1.2,0c1.1,1.1-2,2.2,0.1,4.5c0,0,0.1-0.8,1.5-0.9
		c0.9,0,1.9,0.7,3.1,2.5c1.2,1.8,3.8,4,2.5,5c-0.3,0.2-0.4,0.3-0.8,0.3c-1.2,0-1.5-0.9-1.5-0.9s-0.8,2.9,3.4,3.8c-0.4,0.1,2,1,2.9,2
		c0.2,0.3,2.2,0.5,2.2,0.8c-0.1,0.3-2.3,0.6-2.8,0.9c-2.2,1.1-1.8,2.6-1.8,2.6c-7.9,4.8-9.3,0.9-9.3,0.9c-0.7-3.1-3.2-3.2-3.4-3.2
		c-0.2-0.5-1.1-0.9-1.7-1.3c-2.3-1.2-3.8,1-3.8,1s0.9-0.1,1.5,0c0.8,0.2,2,1.9-0.9,2.2c-1.9,0.2-3.3,1.5-3.1,2.9
		c-1.7,1.2-1.9,3.1-1.4,4.1c0,0,1.2-2,2.4-1.5c0.1,0.1,0.6,0.4,0.8,0.5c0.9,0.4,1.3,0.3,1.3,0.3c-1.6,1.5-1.4,2.9-1.1,3.5
		c0.2,0.7,0.5,0.9,0.9,1.2c-0.1,0.3-0.6,2.3,1.8,3.5c0,0-0.3-0.3-0.2-1.4c0-0.5,0.3-1.1,1-1.2c1.3,0.1,2.2-0.7,2.2-0.7
		c0.7-0.6,1.4-0.3,0.7,0.9c-0.8,1.3,0.9,1.9,0.9,1.9c-0.5,1.1-1.6,1.4-1.6,1.4s1.8,1.3,3.9-0.7c2.1-2,1.4-5.5,1.4-5.5
		c1.7,1,4.2,0.8,4.2,0.8c1.3,3.1,4.3,2.9,4.3,2.9c-1-1.1-2.3-2.8-0.9-3.7c1.4-0.9,1.8,1.1,3.4,3.4c1.6,2.3,2.9,1.9,2.9,1.9
		c-2.2-2.8-0.1-3.9,0.1-4c0,0,0,0,0,0c0.1,0,0.1,0,0,0c0.7-0.2,4.2,1.2,4.9,2.8c0.3,0.7,1.5,1.8,3,2.7c1.5,0.9,3.3,1.7,5,1.9
		c3.9,0.5,4.1,1.2,4.1,1.2C75,85.8,74.2,87,74.2,87c2.6,0.1,4.8,0.5,5.5,0.7c0.7,0.3,5.4,2.5-0.8,2.2c-2.2-0.1-4.3-0.2-5.6,0.1
		c-1.2,0.3-2,0.6-2.4,0.8c-1.1,0.5-1.7,1.4-4.2,0.6c-2-0.6-2.7-0.6-5.1-0.6c-1.7,0.1-8.8,5.1-8.8,5.1s-0.4-0.3-1.1,0.4
		c-0.9,1.1-3.5,5.1-3.3,7c0.3,2.5,1.9,3,1.9,3c-1.1-3.5,2.2-3.3,2.2-3.3c0.8,4.5,3.4,4.3,5.1,4.5c1.7,0.2,2.3,1.2,1.2,2.2
		c-0.8,0.8-2.9,0.8-5.3,4.9c-3.7,6.5-5.3,1.7-5.4,1.1c-0.1-0.6-0.6-1.1-0.6-1.1c0.5-3.1-1.6-5.9-3-6.3c-0.8-0.2-3.3,0.7-3.7,0.9
		c-0.3,0-0.8,0.1-1,0.1c-2.3,0.4-2.5,2.8-2.5,2.8c1-1.1,2.2-0.7,2.8-0.6c0.3,0.9,1,1.6,2,1.8c0.4,0.3-1.2,0.2-2.5,0.6
		c-1.5,0.5-2.2,1.4-2,3.1c-0.5,0.5-1.5,1.3-1.3,2.7c0.2,1.6,1.7,2.2,1.7,2.2s-0.6-2.7,0.8-2.5c0.3,0.4,0.8,0.5,1.3,0.5
		c1.1,0.2,1.3-0.7,2,0c0.3,0.3,0.7,1.1,0.7,1.1s-1.3,0.6-1.9,1.8c-1.5,3.1,0.9,4.5,0.9,4.5s-0.2-1.1,0.2-2.1
		c0.9-2.1,1.5-0.6,2.8-0.6c1.3,0.1,2.3-1.2,2.3-1.2s0.2,0.4,0.8,0.9c0.6,0.5,1.8,0.3,1.8,0.3s-0.5,0.4-0.5,1.1
		c0,0.8,0.2,1.4,0.5,1.8c-0.3,0.4-0.9,1.1-2,1.1c0,0,1.8,1.5,4.2,0c0.9,0.1,1.9-0.1,2.5-0.4c1.4-0.9,0.6-3.1,0.5-4.8
		c-0.1-1.7,4.9-3,5.9-3.3c1-0.3,1.7-1.2,1.7-1.2c1.7,3.3,4,3.1,4,3.1c-0.7-1.1,1.8-6.3,3.7-6.8c2.2-0.6,2.6-2.2,2.6-2.2
		c0.9,0.6,1.6,0.3,1.6,0.3s-1.6-5.2-2.6-5.5c-1-0.3-2.3-3.2,0.6-7c2-2.6,5.1-3.1,7.2-3.1c1.2,0,2.1,0.2,2.1,0.2
		c-0.4,0.5-0.6,0.9-0.9,1.3c-5.4,6.8,0.2,10.6,0.2,10.6c-2.7,5.9,2.8,8.3,2.8,8.3s-1.1-5.2,2.2-3.9c3.5,1.3,4.9-1.1,5.6-1.2
		c5.1-1.4,7.4-4.6,7.4-4.6c0.1,0.8,0.1,1.1,1.7,3.9c1.6,2.8,0.8,6.6-0.9,7.3c-1.2,0.5-2,0.6-2.7,0.5c-1.7-0.3-1.7-1.9-3.4-2.4
		c-1.8-0.5-5.1,2.6-5.2,3.1c-1.4,0.8-1.8,3.1-0.2,4.8c0,0-0.2-1.7,1-2.3c1,0.8,2.6,0.8,2.6,0.8s-0.2,0.7-0.5,0.9
		c-2.7,2.5,0.8,5.1,0.8,5.1c-0.5-1.5,0.2-2.2,0.2-2.2s1.1,2,3.2,1.5c2.1-0.5,1.7-3.6,1.7-3.6c1.4-0.3,1.7,0.9,2.5,2
		c0.6,0.8,1.4,1.1,2.1,1.1c0.5,0.7,1.4,1.4,2.9,1.3c0.7,0,0.8-0.3,0.8-0.3s-0.9-0.3-1.6-1.4c0.7-0.5,1.6-2.3,0.6-3.7
		c-1.1-1.6,0.3-1.6,1-0.9c0.6,0.7,1,1.1,1.4,1.5c0.7,0.7,2,0.5,2,0.5c0,1.4-1.3,2.6-1.3,2.6c3.5-0.1,3.3-3.2,3.3-3.2
		c1.1-0.4-2.3-5.3-2.3-5.3c1.9-2.4,2-5,2-5c1.1,0,2.1,2.2,2.1,2.2c1.1-2.2-1.2-6-0.9-7.5c0.3-1.5,0.6-2.3,0.8-3.7
		c0.2-1.6,3.9,0,3.9,0s-0.5-2.6-2.8-4c-4-2.3-6.3-4.8-6.3-4.8c-2.5-2.2-4.4-1-6.5-0.4c-4.1,1.1-5.5-2.3,0-3.6
		c21.7-6.2,6.6-30.5,5.3-33.4c-2.4-5.1-5.3-8.6-5.1-17.7c0.1-4,4.7-7.3,7.2-7.2c3.5,0.2,5.1,3,5.1,3c-2.5,5.2-2,6.9-1,9.8
		c0.8,2.4-1.2,4.2-1.2,4.2c2.3-0.2,3.4-2.4,3.4-2.4c0.6,1.1,0.1,3,0.1,3c1.6-0.7,1.9-2.3,1.9-2.3c0.5,2.4,2.4,3.7,2.4,3.7
		s-0.6-2-0.3-4c0.3-1.9,1.7-7.9-0.9-11.9c-7.3-11-26.7-4-15.6,17.4c1,1.9,11.9,22.3,6.1,29.6c-2.8,3.5-7.3,4.9-9.1,4.9
		c-1.6,0-2.3-0.9-2.5-1.5c0-0.1,0-0.2-0.1-0.2C94.6,82.7,88.2,78,88.2,78c2-2.3,1.5-3.4,1.5-3.4c-6.2,2.7-2.5-8.3,0.1-10
		c2.6-1.7,3.1-2.6,3.1-2.6c-3.7,0.4-5.7-2.7-1.3-5.3c4.3-2.6,4-3.5,4-3.5s-1.2,0.2-1.9,0.1c-1.5-0.2-1.3-0.9-1.2-2.1
		c0.5-4.9-1-7.2-1-7.2c2.8-2,3-3.6,3-3.6c-2.2,0.7-4.4-0.4-3.4-2.6c1-2.2,1.8-4.5,1.8-4.5c-1.8-0.7-4.8-0.5-4.8-0.5
		c-0.8-2.2-1.7-2.8-1.7-2.8c-0.5,0.7-1.5,1.8-1.5,1.8C77,28,74,33.2,73.4,33.9c-0.5,0.6-1.4,0.6-1.9,0.9c-2.9,1.1-5.2,2.3-5.2,2.8
		c0.2,1.1,1.5,3.1,2,4.4c0.6,1.7,0.9,1.6,1.5,1.8c1.3,0.4,2.4-0.7,4.5-0.9c1.1-0.1,2.7,1.2,2.4,2.7c-0.3,0.6-0.2,0.6-0.7,1.2
		c-1.7,2-3.5,0.4-4.5,0c-0.8-0.3-1.8,0-1.8,0s0.4,2.4,0.8,2.8c1,0.9,3.5,0.7,3.3,1.5c0,0-0.9,1.8-4.3,0.4C65,49.6,61.7,52,61.7,52
		c-10.9-3.6-14.6-15.3-14.3-15.9c0.5-0.6,1.9-3.4-1.2-5.2c-0.3-0.2-0.5-0.3-0.8-0.4c-1.2-2.1-3.8-0.9-3.8-0.9
		c0.8,0.3,1.3,0.5,1.7,1.3c-0.8,0.7-1.1,1.9-1.1,1.9s-1.2-2.8-3.9-2.1c-1.2,0.3-0.8,1-0.9,1c-3.5,1.3-3.5,4.2-3.5,4.2
		s1.8-2.2,2.8-1.4c0.6,0.5,0.5,1.1,0.3,1.5C36.9,36.1,36.4,36.3,36.4,36.3z M77.7,37.9c-0.6-0.4-1.8-0.8-1.8-0.8
		c-0.3-0.1-0.3-0.4-0.1-0.6c0.2-0.1,0.5-0.2,0.8-0.3c0.7-0.3,1.3-1.2,1.8-0.8c0.5,0.5,0.9,1.4,0.5,2.3
		C79.1,38.3,78.8,38.6,77.7,37.9z"/>
	<path class="cc-fil" d="M59.3,76.7C59.3,76.7,59.4,76.7,59.3,76.7C59.4,76.7,59.4,76.7,59.3,76.7z"/>
	<path id="tongue_4_" class="cc-fil" d="M70.9,45.6c-2.5-1.8-4.6,0.1-7.7,0.2c-4.9,0.1-4.9-2.5-4.1-4.1c0.4-0.8,0.8-1.5,0.5-1.9
		c-0.7-1-3.8,2.1-2.6,5.2c0.7,1.3,2.4,2.9,5.4,2.5c1.8-0.2,3.3-0.9,5-1.8C69.3,44.6,71.3,45.9,70.9,45.6z"/>
</g>
</svg>
