<svg version="1.1" id="Layer_1" xmlns="http://www.w3.org/2000/svg" viewBox="0 0 500 500">
<polygon id="star" class="cc-fil" points="256.5,51.8 264.3,60.1 253.2,57.5 249.8,68.4 246.5,57.5 235.4,60.1 243.2,51.8 235.4,43.4 246.5,46 
	249.8,35.1 253.2,46 264.3,43.4 "/>
<path id="squiggle" class="cc-fil" fill-rule="evenodd" clip-rule="evenodd" d="M249.8,408.4c-5.3-0.1-10.4,8.7-14.7,9.9c-5.1,1.4-9.5-0.9-14-4.8c-2.1-1.9-4.1-4.6-6.8-4.8
	c-6.2-0.7-9.9,11.3-20,10.2c-6-0.7-10.8-9.6-15.8-9.9c-6.7-0.2-8.6,7.7-14.7,9.5c-21.5,5.6-18.7-28.5,1.2-20.4c4.7,2,7.2,8.5,12.8,9
	c7,0.7,10.7-12.7,21.8-9.9c5.5,1.4,8.7,9.4,14.3,9.9c4.8,0.4,9-8.5,14.3-9.9c10.3-2.8,14.1,9.5,21.5,9.9h0.4
	c7.4-0.4,11.2-12.6,21.5-9.9c5.3,1.4,9.5,10.2,14.3,9.9c5.6-0.4,8.8-8.3,14.3-9.9c11-2.9,14.8,10.5,21.8,9.9c5.6-0.6,8.1-7.2,12.8-9
	c19.8-8.1,22.7,26.2,1.2,20.4c-6.1-1.6-8-9.6-14.7-9.5c-5.1,0.1-9.9,9.2-15.8,9.9c-10.2,1.2-13.7-10.8-20-10.2
	c-2.7,0.2-4.6,3-6.8,4.8c-4.5,3.9-8.9,6.2-14,4.8c-4.2-1.2-9.4-10-14.7-9.9H249.8z"/>
<g id="roman-numerals">
	<path id="emm1" class="cc-fil" d="M230.6,448.5h1l3.1,4.6l3.1-4.6h1v8.5h-1v-6.9l-3.1,4.6l0,0l-3.1-4.5v6.9h-0.9v-8.6H230.6z"/>
	<path id="emm2" class="cc-fil" d="M243.6,448.5h1l3.1,4.6l3.1-4.6h1v8.5h-1v-6.9l-3.1,4.6l0,0l-3.1-4.5v6.9h-0.9v-8.6H243.6z"/>
	<path id="eye" class="cc-fil" d="M256.7,448.5h1v8.5h-1V448.5z"/>
	<path id="ecks" class="cc-fil" d="M265.2,452.6l-3.1-4.2h1.1l2.6,3.5l2.6-3.5h1.1l-3.1,4.2l3.3,4.3h-1.1l-2.7-3.7L263,457h-1.1L265.2,452.6z"/>
</g>
<g id="year">
	<line id="bottom-left-line" class="cc-str" x1="224.2" y1="454.6" x2="199.5" y2="454.6"/>
	<line id="top-left-line" class="cc-str" x1="187.4" y1="450.5" x2="224.2" y2="450.5"/>
	<line id="bottom-right-line" class="cc-str" x1="275.8" y1="454.6" x2="300.4" y2="454.6"/>
	<line id="top-right-line" class="cc-str" x1="312.5" y1="450.5" x2="275.8" y2="450.5"/>
</g>
<path class="cc-fil" d="M249.7,492.8c-64.9,0-125.9-25.3-171.8-71.2C32,375.7,6.7,314.7,6.7,249.8S32,123.9,77.9,78S184.8,6.8,249.7,6.8
	S375.6,32.1,421.5,78s71.2,106.9,71.2,171.8s-25.3,125.9-71.2,171.8S314.6,492.8,249.7,492.8z M249.7,10.8
	c-63.8,0-123.9,24.9-169,70s-70,105.2-70,169s24.9,123.9,70,169s105.2,70,169,70s123.9-24.9,169-70s70-105.2,70-169
	s-24.9-123.9-70-169S313.5,10.8,249.7,10.8z"/>
<path class="cc-fil" d="M250,484.5c-62.6,0-121.5-24.4-165.8-68.7S15.5,312.6,15.5,250S39.9,128.5,84.2,84.2S187.4,15.5,250,15.5
	s121.5,24.4,165.8,68.7s68.7,103.2,68.7,165.8s-24.4,121.5-68.7,165.8S312.6,484.5,250,484.5z M250,19.5c-61.6,0-119.5,24-163,67.5
	S19.5,188.4,19.5,250s24,119.5,67.5,163s101.4,67.5,163,67.5s119.5-24,163-67.5s67.5-101.4,67.5-163s-24-119.5-67.5-163
	S311.6,19.5,250,19.5z"/>
<path class="cc-fil" d="M211.4,231.5c0.1,0,0.2,0,0.2,0C211.5,231.5,211.4,231.5,211.4,231.5z"/>
<path class="cc-fil" d="M212.3,231.5c0,0-0.1,0-0.2,0C212.1,231.5,212.2,231.5,212.3,231.5z"/>
<path class="cc-fil" d="M211.6,231.5c-0.1,0-0.2,0-0.2,0h0.9l0,0c-0.1,0-0.1,0-0.2,0C211.9,231.5,211.7,231.5,211.6,231.5z"/>
<g>
	<path class="cc-fil" d="M144.6,122.6c-6.5,2-7.6,5.1-6.8,8c-6.4,5.4-1.1,10.8-1.1,10.8c0.9-3,2.8-4.3,4.6-4.7c0.1,0.2,0.2,0.3,0.3,0.5
		c1.1,1.4,8.4,0.8,8.4,0.8c2.4,1,4.5,1.3,4.5,1.3s-1.1,0.8-1.6,2.9c-0.3,1.2,1.2,3.2-0.2,4.4c-1.4,1.2-3.8-1.3-3.8-1.3
		c0.9,8.9,9.3,6.8,11.1,5.7c0.7-0.4,2-1.3,3.3-2.1c1.3-0.8,2.4-0.8,3.3-0.1c3,3-5.5,5.9,0.2,12.2c0,0,0.2-2.3,4.1-2.4
		c2.4-0.1,5.2,1.9,8.3,6.8c3.2,4.9,10.3,10.9,6.8,13.6c-0.8,0.7-1,0.9-2.1,0.9c-3.4,0-4.2-2.4-4.2-2.4s-2.3,7.8,9.3,10.3
		c-1,0.4,5.6,2.6,7.9,5.4c0.7,0.8,6.1,1.5,5.8,2.3c-0.2,0.8-6.1,1.6-7.7,2.4c-5.9,3.1-4.9,7.2-4.9,7.2c-21.6,13.2-25.4,2.4-25.4,2.4
		c-1.9-8.3-8.7-8.7-9.1-8.7c-0.4-1.3-2.9-2.5-4.6-3.5c-6.1-3.4-10.3,2.7-10.3,2.7s2.4-0.2,4.1,0.1c2.2,0.4,5.6,5.2-2.5,5.9
		c-5.3,0.5-8.9,4.1-8.5,8c-4.5,3.2-5.2,8.6-3.8,11.2c0,0,3.3-5.4,6.6-4.1c0.3,0.2,1.6,1,2.1,1.2c2.4,1,3.5,0.8,3.5,0.8
		c-4.4,4.1-3.7,7.8-3.1,9.6c0.7,1.9,1.4,2.4,2.4,3.2c-0.2,0.8-1.5,6.4,4.9,9.6c0,0-0.8-0.9-0.5-3.8c0.1-1.3,0.9-3,2.6-3.2
		c3.6,0.2,6-2,6-2c2-1.8,3.8-0.8,1.9,2.5c-2.1,3.5,2.4,5.3,2.4,5.3c-1.3,3.1-4.3,3.7-4.3,3.7s4.8,3.5,10.6-1.9s3.8-15,3.8-15
		c4.6,2.6,11.5,2.3,11.5,2.3c3.6,8.5,11.6,7.8,11.6,7.8c-2.7-2.9-6.3-7.7-2.4-10.2c3.9-2.4,4.8,2.9,9.2,9.1c4.4,6.3,8,5.3,8,5.3
		c-5.9-7.7-0.2-10.6,0.4-10.9h-0.1c0.2-0.1,0.2-0.1,0.1,0c2.1-0.5,11.3,3.2,13.5,7.5c0.9,2,4.1,4.8,8.2,7.4
		c4.1,2.4,8.9,4.6,13.7,5.3c10.6,1.3,11.2,3.4,11.2,3.4c-3.9,1.1-6,4.5-6,4.5c7.1,0.2,13,1.2,14.9,2c2,0.8,14.8,6.8-2.3,5.8
		c-5.9-0.3-11.6-0.5-15.3,0.2c-3.2,0.8-5.5,1.5-6.6,2.1c-3.1,1.4-4.5,3.8-11.5,1.6c-5.6-1.6-7.3-1.8-13.8-1.5
		c-4.5,0.2-23.8,13.8-23.8,13.8s-1.2-0.8-2.9,1.1c-2.5,3-9.7,13.8-9,19.1c0.8,6.7,5.3,8.1,5.3,8.1c-3.1-9.7,5.9-9,5.9-9
		c2.1,12.2,9.1,11.7,13.8,12.3c4.6,0.7,6.1,3.3,3.4,5.9c-2.2,2.1-8,2.1-14.5,13.4c-10.1,17.7-14.4,4.5-14.7,2.9
		c-0.3-1.6-1.5-3.1-1.5-3.1c1.3-8.6-4.3-16-8.2-17.1c-2.1-0.7-8.9,1.9-10,2.5c-0.8,0.1-2.2,0.2-2.6,0.3c-6.4,1.1-6.8,7.5-6.8,7.5
		c2.6-2.9,5.8-1.9,7.6-1.6c0.8,2.4,2.7,4.4,5.5,4.8c1.1,0.8-3.4,0.5-6.7,1.5c-4.1,1.3-5.8,3.9-5.6,8.3c-1.3,1.3-4.1,3.5-3.6,7.4
		c0.7,4.3,4.6,6,4.6,6s-1.5-7.4,2.2-6.7c0.9,1.1,2.2,1.2,3.5,1.4c2.9,0.7,3.6-1.9,5.5,0.1c0.9,0.9,1.9,3,1.9,3s-3.5,1.6-5.2,4.9
		c-4.1,8.5,2.4,12.2,2.4,12.2s-0.5-3,0.7-5.7c2.4-5.7,4.1-1.8,7.7-1.5c3.6,0.2,6.3-3.4,6.3-3.4s0.7,1,2.3,2.5
		c1.6,1.4,4.9,0.9,4.9,0.9s-1.3,1.1-1.4,3.1c-0.1,2.2,0.5,3.8,1.4,5c-0.8,1.1-2.4,3.1-5.6,2.9c0,0,4.9,4.2,11.3,0
		c2.5,0.3,5.3-0.2,6.8-1.1c3.8-2.4,1.6-8.3,1.3-13c-0.3-4.6,13.5-8.1,16.1-9c2.6-0.9,4.7-3.2,4.7-3.2c4.6,9,10.9,8.5,10.9,8.5
		c-2-3.1,4.9-17.1,10.1-18.5c5.8-1.6,7.1-5.9,7.1-5.9c2.4,1.5,4.4,0.9,4.4,0.9s-4.4-14.1-7.1-14.9c-2.6-0.8-6.4-8.7,1.6-19
		c5.6-7.1,13.8-8.6,19.5-8.6c3.4,0,5.7,0.5,5.7,0.5c-1,1.2-1.6,2.5-2.4,3.6c-14.7,18.7,0.5,29,0.5,29c-7.3,16,7.7,22.7,7.7,22.7
		s-3-14.1,5.8-10.7c9.4,3.6,13.5-2.9,15.4-3.4c13.8-3.8,20.3-12.5,20.3-12.5c0.3,2.1,0.2,3.1,4.6,10.6c4.3,7.5,2.3,18-2.4,19.9
		c-3.2,1.2-5.6,1.5-7.4,1.2c-4.5-0.8-4.7-5.3-9.2-6.5c-4.8-1.3-13.9,7.1-14.3,8.6c-3.9,2.3-4.8,8.6-0.5,13.2c0,0-0.7-4.7,2.6-6.4
		c2.7,2.3,7,2.1,7,2.1s-0.7,1.9-1.3,2.5c-7.3,6.9,2.1,13.8,2.1,13.8c-1.2-4.1,0.5-6,0.5-6s2.9,5.5,8.7,4.1s4.5-9.8,4.5-9.8
		c3.9-0.9,4.5,2.5,6.7,5.4c1.8,2.2,3.8,3,5.7,3.1c1.3,1.9,3.7,3.8,8,3.6c1.9,0,2.1-0.9,2.1-0.9s-2.4-0.8-4.3-3.9
		c2-1.3,4.4-6.3,1.5-10.2c-3.1-4.3,0.9-4.3,2.6-2.4c1.8,1.9,2.7,3,3.9,4.1c2,2,5.6,1.3,5.6,1.3c-0.1,3.7-3.6,7.1-3.6,7.1
		c9.4-0.3,8.9-8.9,8.9-8.9c2.9-1.1-6.3-14.4-6.3-14.4c5.2-6.5,5.4-13.6,5.4-13.6c2.9,0.1,5.7,6,5.7,6c2.9-5.9-3.2-16.4-2.4-20.4
		c0.8-4.1,1.5-6.4,2.1-10c0.7-4.3,10.5,0,10.5,0s-1.3-7.1-7.6-10.8c-10.8-6.4-17.1-13-17.1-13c-6.8-5.8-12-2.6-17.7-1.1
		c-11.1,3.1-15.1-6.4,0-9.8c59.2-17,17.9-86.6,14.4-94.6c-6.5-13.9-14.3-19.8-13.8-44.7c0.2-11,12.9-19.9,19.6-19.7
		c9.7,0.4,13.9,8.1,13.9,8.1c-6.8,14.2-5.4,18.7-2.7,26.8c2.2,6.5-3.4,11.3-3.4,11.3c6.1-0.7,9.2-6.6,9.2-6.6
		c1.5,3.1,0.2,8.2,0.2,8.2c4.3-1.9,5.3-6.3,5.3-6.3c1.4,6.5,6.5,10.1,6.5,10.1s-1.8-5.6-0.8-10.8s4.6-21.5-2.4-32.3
		c-19.9-30-72.6-11-42.4,47.5c2.6,5.2,32.3,60.8,16.6,80.6c-7.6,9.6-20,13.3-24.9,13.4c-4.4,0.1-6.1-2.4-6.9-4.2
		c-0.1-0.2-0.1-0.4-0.2-0.7c-5-15.6-22.4-28.2-22.4-28.2c5.5-6.4,4.2-9.1,4.2-9.1c-16.8,7.3-6.7-22.6,0.3-27.1s8.3-7.2,8.3-7.2
		c-10,1-15.5-7.4-3.6-14.5c11.9-7,11-9.7,11-9.7s-3.2,0.5-5.3,0.2c-4.1-0.7-3.5-2.4-3.2-5.7c1.2-13.5-2.6-19.6-2.6-19.6
		c7.7-5.5,8.1-9.9,8.1-9.9c-5.9,1.9-12-1-9.2-7.1c2.6-6,5-12.3,5-12.3c-4.8-1.9-13.2-1.3-13.2-1.3c-2.1-6-4.5-7.5-4.5-7.5
		c-1.2,1.9-4.1,5-4.1,5c-21.9-10.3-30.1,3.9-31.7,5.7c-1.4,1.6-3.7,1.8-5.3,2.4c-7.9,2.9-14.3,6.1-14.1,7.7c0.4,3,4.2,8.5,5.5,12
		c1.8,4.5,2.4,4.3,4.1,4.8c3.6,1.1,6.5-1.9,12.3-2.4c3.1-0.2,7.4,3.3,6.6,7.3c-0.8,1.5-0.4,1.6-1.9,3.4c-4.7,5.6-9.4,1.1-12.3,0
		c-2.2-0.8-5,0-5,0s1,6.6,2.1,7.5c2.6,2.4,9.7,2,8.9,4.1c0,0-2.4,5-11.9,1.1c-12.1-5-20.9,1.4-20.9,1.4
		c-29.9-9.9-39.9-41.6-38.9-43.1c1.2-1.8,5.2-9.3-3.3-14.2c-0.9-0.5-1.4-0.8-2.2-1c-3.2-5.7-10.4-2.5-10.4-2.5
		c2.3,0.8,3.5,1.2,4.6,3.6c-2.2,1.9-2.9,5.2-2.9,5.2s-3.3-7.5-10.6-5.7c-3.2,0.8-2.3,2.6-2.5,2.7c-9.4,3.5-9.5,11.5-9.5,11.5
		s4.8-5.8,7.6-3.9c1.8,1.2,1.3,2.9,0.8,4.1C145.9,122,144.6,122.6,144.6,122.6z M257.1,127c-1.6-1-5-2.1-5-2.1
		c-0.8-0.3-0.9-1-0.3-1.5c0.5-0.3,1.3-0.4,2.3-0.8c1.9-0.9,3.5-3.4,4.9-2.1c1.3,1.3,2.4,3.8,1.4,6.3
		C260.8,128,260.1,128.8,257.1,127z"/>
	<path class="cc-fil" d="M207,230.8L207,230.8C207.2,230.8,207.2,230.8,207,230.8z"/>
	<path id="tongue" class="cc-fil" d="M238.5,146.1c-6.9-5-12.6,0.4-21,0.6c-13.5,0.4-13.5-6.8-11.2-11.2c1.1-2.3,2.2-4,1.2-5.3
		c-1.9-2.7-10.3,5.6-7,14.2c1.9,3.6,6.5,7.8,14.6,6.8c4.9-0.7,9-2.5,13.7-5C234.2,143.4,239.5,146.9,238.5,146.1z"/>
</g>
</svg>
