<svg id="Layer_1" xmlns="http://www.w3.org/2000/svg" viewBox="0 0 250 250">
<polygon id="star_1_" class="cc-fil" points="128.5,28.7 132.5,32.9 126.8,31.6 125.1,37.2 123.4,31.6 117.7,32.9 121.7,28.7 117.7,24.4 
	123.4,25.7 125.1,20.1 126.8,25.7 132.5,24.4 "/>
<path id="squiggle_1_" class="cc-fil" fill-rule="evenodd" clip-rule="evenodd" d="M125.1,208.8c-2.8-0.1-5.3,4.4-7.5,5c-2.6,0.7-4.8-0.5-7.1-2.5c-1.1-1-2.2-2.4-3.4-2.5
	c-3.1-0.4-5,5.8-10.2,5.2c-3.1-0.4-5.5-4.9-8.1-5c-3.4-0.1-4.3,3.9-7.5,4.8c-10.9,2.9-9.5-14.6,0.6-10.4c2.5,1,3.6,4.3,6.5,4.6
	c3.6,0.4,5.5-6.5,11.1-5c2.9,0.7,4.4,4.8,7.3,5c2.5,0.2,4.6-4.3,7.3-5c5.2-1.4,7.2,4.8,10.9,5h0.2c3.7-0.2,5.7-6.4,10.9-5
	c2.8,0.7,4.8,5.2,7.3,5c2.9-0.2,4.5-4.2,7.3-5c5.7-1.5,7.6,5.4,11.1,5c2.9-0.3,4.1-3.6,6.5-4.6c10.1-4.1,11.5,13.4,0.6,10.4
	c-3.1-0.8-4-4.9-7.5-4.8c-2.6,0.1-5,4.6-8.1,5c-5.2,0.6-7-5.5-10.2-5.2c-1.4,0.1-2.4,1.6-3.4,2.5c-2.3,2-4.5,3.1-7.1,2.5
	C130.4,213.2,127.8,208.7,125.1,208.8L125.1,208.8z"/>
<path class="cc-fil" d="M125,246.6c-67,0-121.4-54.5-121.4-121.4S58,3.7,125,3.7s121.4,54.5,121.4,121.4S192,246.6,125,246.6z M125,9.6
	C61.3,9.6,9.5,61.5,9.5,125.2S61.3,240.7,125,240.7s115.5-51.8,115.5-115.5S188.7,9.6,125,9.6z"/>
<path class="cc-fil" d="M105.9,121.7L105.9,121.7C106,121.7,105.9,121.7,105.9,121.7z"/>
<path class="cc-fil" d="M106.3,121.7L106.3,121.7C106.2,121.7,106.3,121.7,106.3,121.7z"/>
<path class="cc-fil" d="M106.1,121.7L106.1,121.7h0.4l0,0h-0.1C106.2,121.7,106.1,121.7,106.1,121.7z"/>
<g>
	<path class="cc-fil" d="M73.3,65.8c-3.2,0.9-3.7,2.5-3.3,3.9c-3.1,2.6-0.6,5.3-0.6,5.3c0.5-1.5,1.4-2.1,2.3-2.4c0.1,0.1,0.1,0.2,0.2,0.2
		c0.6,0.7,4.1,0.4,4.1,0.4c1.1,0.5,2.2,0.7,2.2,0.7s-0.6,0.6-0.9,1.5c-0.2,0.6,0.6,1.6-0.1,2.2c-0.7,0.6-1.9-0.7-1.9-0.7
		c0.5,4.4,4.5,3.3,5.5,2.7c0.3-0.2,0.9-0.7,1.6-1c0.7-0.4,1.2-0.4,1.6-0.1c1.4,1.4-2.6,2.9,0.1,6c0,0,0.1-1.1,2-1.2
		c1.1-0.1,2.6,0.9,4.1,3.3c1.6,2.5,5,5.3,3.3,6.6c-0.4,0.3-0.5,0.5-1,0.5c-1.7,0-2.1-1.1-2.1-1.1s-1.1,3.8,4.5,5
		c-0.6,0.2,2.7,1.3,3.9,2.6c0.3,0.4,3,0.8,2.8,1.1c-0.1,0.4-3,0.8-3.8,1.1c-2.9,1.5-2.5,3.5-2.5,3.5c-10.6,6.4-12.5,1.2-12.5,1.2
		c-0.9-4.1-4.3-4.3-4.4-4.3c-0.2-0.7-1.4-1.2-2.3-1.7c-3-1.7-5,1.3-5,1.3s1.2-0.1,2,0.1c1,0.2,2.7,2.6-1.2,2.9c-2.6,0.3-4.4,2-4.2,4
		c-2.2,1.6-2.6,4.2-1.9,5.5c0,0,1.6-2.6,3.2-2c0.2,0.1,0.9,0.5,1,0.6c1.1,0.5,1.7,0.4,1.7,0.4c-2.2,2-1.8,3.8-1.5,4.7
		c0.3,0.9,0.7,1.1,1.1,1.6c-0.1,0.4-0.8,3.1,2.5,4.7c0,0-0.4-0.5-0.3-1.9c0.1-0.7,0.5-1.4,1.3-1.6c1.8,0.1,2.9-0.9,2.9-0.9
		c0.9-0.9,1.9-0.4,0.9,1.2c-1,1.7,1.1,2.6,1.1,2.6c-0.7,1.5-2.1,1.8-2.1,1.8s2.4,1.7,5.2-0.9c2.8-2.6,1.9-7.4,1.9-7.4
		c2.3,1.3,5.7,1.1,5.7,1.1c1.8,4.2,5.7,3.8,5.7,3.8c-1.3-1.4-3.1-3.8-1.1-5c1.9-1.2,2.4,1.4,4.5,4.4c2.2,3.1,4,2.6,4,2.6
		c-2.9-3.8-0.1-5.2,0.2-5.4l0,0c0.1,0,0.1,0,0,0c1-0.3,5.6,1.5,6.6,3.7c0.5,0.9,2,2.4,4.1,3.6c2,1.2,4.4,2.3,6.7,2.6
		c5.2,0.7,5.5,1.7,5.5,1.7c-1.9,0.6-2.9,2.2-2.9,2.2c3.5,0.1,6.3,0.6,7.3,0.9c0.9,0.4,7.3,3.3-1.1,2.8c-2.9-0.2-5.7-0.3-7.5,0.1
		c-1.6,0.4-2.6,0.8-3.2,1c-1.5,0.7-2.2,1.9-5.7,0.9c-2.7-0.9-3.6-0.9-6.7-0.8c-2.2,0.1-11.7,6.8-11.7,6.8s-0.6-0.4-1.4,0.6
		c-1.2,1.5-4.7,6.8-4.4,9.4c0.4,3.3,2.6,4,2.6,4c-1.5-4.7,2.9-4.4,2.9-4.4c1,6,4.4,5.8,6.8,6.1c2.3,0.3,3,1.6,1.7,2.9
		c-1,1-4,1-7.1,6.5c-4.9,8.7-7.1,2.2-7.2,1.4c-0.2-0.9-0.8-1.5-0.8-1.5c0.7-4.2-2.1-7.8-4.1-8.3c-1-0.3-4.4,0.9-4.9,1.2
		c-0.4,0.1-1,0.1-1.3,0.2c-3.1,0.6-3.3,3.7-3.3,3.7c1.3-1.4,2.8-0.9,3.7-0.9c0.4,1.2,1.3,2.2,2.6,2.4c0.6,0.4-1.7,0.3-3.3,0.8
		c-2,0.7-2.8,1.9-2.7,4.1c-0.7,0.7-2,1.7-1.8,3.6c0.3,2.1,2.3,2.9,2.3,2.9s-0.8-3.6,1-3.3c0.5,0.6,1,0.6,1.7,0.7
		c1.4,0.3,1.8-0.9,2.6,0.1c0.5,0.5,0.9,1.4,0.9,1.4s-1.7,0.9-2.6,2.5c-2,4.2,1.1,6,1.1,6s-0.3-1.4,0.3-2.7c1.1-2.8,2-0.9,3.8-0.8
		s3.1-1.7,3.1-1.7s0.3,0.5,1.1,1.2c0.9,0.7,2.5,0.5,2.5,0.5s-0.7,0.6-0.7,1.5c-0.1,1,0.3,1.9,0.7,2.5c-0.4,0.6-1.2,1.5-2.7,1.4
		c0,0,2.5,2.1,5.6,0c1.2,0.2,2.6-0.1,3.3-0.6c1.9-1.2,0.9-4.1,0.7-6.3c-0.2-2.3,6.6-4,7.9-4.4c1.3-0.5,2.4-1.6,2.4-1.6
		c2.3,4.4,5.3,4.2,5.3,4.2c-0.9-1.5,2.5-8.3,4.9-9.1c2.8-0.9,3.5-2.9,3.5-2.9c1.2,0.8,2.2,0.5,2.2,0.5s-2.2-6.9-3.5-7.3
		c-1.3-0.4-3.1-4.3,0.9-9.4c2.7-3.5,6.8-4.2,9.6-4.2c1.7,0,2.8,0.3,2.8,0.3c-0.5,0.6-0.9,1.2-1.2,1.8c-7.2,9.1,0.3,14.2,0.3,14.2
		c-3.6,7.8,3.8,11.2,3.8,11.2s-1.4-6.9,2.8-5.2c4.6,1.8,6.6-1.4,7.5-1.7c6.8-1.9,9.9-6.1,9.9-6.1c0.2,1,0.1,1.5,2.3,5.2
		c2.1,3.7,1.1,8.8-1.2,9.7c-1.6,0.6-2.7,0.8-3.6,0.6c-2.2-0.4-2.4-2.6-4.5-3.2c-2.4-0.7-6.8,3.5-7,4.2c-1.9,1.1-2.4,4.2-0.3,6.4
		c0,0-0.3-2.4,1.3-3.1c1.3,1.1,3.4,1,3.4,1s-0.3,0.9-0.7,1.2c-3.6,3.4,1,6.8,1,6.8c-0.6-2,0.3-2.9,0.3-2.9s1.4,2.6,4.3,2
		c2.8-0.7,2.2-4.8,2.2-4.8c1.9-0.5,2.2,1.2,3.3,2.6c0.9,1,1.9,1.4,2.7,1.5c0.7,0.9,1.8,1.9,4,1.8c0.9,0,1-0.5,1-0.5
		s-1.2-0.4-2.1-1.9c0.9-0.7,2.2-3.1,0.8-5c-1.5-2.1,0.5-2.1,1.3-1.2c0.9,0.9,1.3,1.4,1.9,2c0.9,0.9,2.7,0.7,2.7,0.7
		c-0.1,1.8-1.8,3.5-1.8,3.5c4.6-0.2,4.4-4.4,4.4-4.4c1.4-0.6-3.1-7.1-3.1-7.1c2.6-3.2,2.6-6.6,2.6-6.6c1.4,0.1,2.8,2.9,2.8,2.9
		c1.4-2.9-1.6-8-1.1-10c0.4-2,0.8-3.1,1-4.9c0.3-2.1,5.1,0,5.1,0s-0.7-3.5-3.7-5.3c-5.3-3.1-8.3-6.3-8.3-6.3
		c-3.3-2.8-5.9-1.3-8.7-0.6c-5.5,1.5-7.4-3.1,0-4.8c29-8.3,8.8-41.4,7.1-45.4c-3.2-6.8-7-10.7-6.8-22.9c0.1-5.4,6.3-9.7,9.6-9.6
		c4.7,0.2,6.8,4,6.8,4c-3.3,7-2.6,9.2-1.3,13.1c1,3.2-1.7,5.6-1.7,5.6c3-0.3,4.5-3.2,4.5-3.2c0.8,1.5,0.1,4.1,0.1,4.1
		c2.1-0.9,2.6-3.1,2.6-3.1c0.7,3.2,3.2,4.9,3.2,4.9s-0.9-2.7-0.4-5.3c0.5-2.6,2.3-10.5-1.2-15.8c-9.7-14.7-35.6-5.4-20.8,23.3
		c1.3,2.6,15.8,29.8,8.1,39.5c-3.7,4.7-9.7,6.5-12.2,6.5c-2.2,0.1-3-1.2-3.4-2.1c-0.1-0.1-0.1-0.2-0.1-0.3c-2.5-7.7-11-13.8-11-13.8
		c2.6-3.1,2.1-4.4,2.1-4.4c-8.2,3.6-3.3-11.1,0.2-13.3c3.4-2.2,4.1-3.5,4.1-3.5c-4.9,0.5-7.6-3.6-1.8-7.1c5.8-3.4,5.4-4.7,5.4-4.7
		s-1.6,0.3-2.6,0.1c-2-0.3-1.7-1.1-1.6-2.8c0.6-6.6-1.3-9.6-1.3-9.6c3.8-2.6,4-4.8,4-4.8c-2.9,0.9-5.9-0.5-4.5-3.5
		c1.3-2.9,2.5-6.1,2.5-6.1c-2.4-0.9-6.4-0.7-6.4-0.7c-1-2.9-2.2-3.7-2.2-3.7c-0.6,0.9-2,2.5-2,2.5c-10.8-5-14.8,1.9-15.6,2.7
		c-0.7,0.9-1.8,0.9-2.6,1.1c-3.9,1.4-7,3-6.9,3.8c0.2,1.4,2.1,4.2,2.6,5.9c0.9,2.2,1.1,2.1,2,2.4c1.8,0.6,3.2-0.9,6.1-1.1
		c1.5-0.1,3.6,1.6,3.2,3.6c-0.4,0.8-0.2,0.9-0.9,1.7c-2.4,2.7-4.6,0.6-6.1,0c-1-0.4-2.5,0-2.5,0s0.5,3.2,1,3.7
		c1.3,1.1,4.7,0.9,4.4,2c0,0-1.2,2.5-5.8,0.6C111.4,82.9,107,86,107,86c-14.7-4.8-19.6-20.4-19-21.2c0.6-0.9,2.6-4.5-1.6-7
		c-0.5-0.3-0.7-0.4-1-0.5c-1.6-2.8-5.1-1.2-5.1-1.2c1.1,0.4,1.7,0.6,2.3,1.8c-1,0.9-1.4,2.6-1.4,2.6s-1.6-3-5.2-2.1
		c-1.6,0.4-1.1,1.3-1.2,1.3c-4.6,1.7-4.7,5.7-4.7,5.7s2.4-2.8,3.7-1.9c0.9,0.6,0.7,1.4,0.4,2C74,65.6,73.3,65.8,73.3,65.8z
		 M128.5,68c-0.9-0.5-2.5-1-2.5-1c-0.4-0.2-0.5-0.5-0.2-0.8c0.3-0.2,0.7-0.2,1.1-0.4c0.9-0.5,1.7-1.7,2.5-1c0.7,0.7,1.1,1.9,0.7,3.1
		C130.3,68.5,129.9,68.9,128.5,68z"/>
	<path class="cc-fil" d="M103.9,119.7C103.9,119.7,104,119.7,103.9,119.7C104,119.7,104,119.7,103.9,119.7z"/>
	<path id="tongue_3_" class="cc-fil" d="M119.3,78.2c-3.4-2.5-6.1,0.2-10.3,0.3c-6.6,0.2-6.6-3.3-5.5-5.5c0.6-1.1,1-2,0.6-2.6
		c-0.9-1.3-5,2.7-3.4,6.9c0.9,1.8,3.2,3.8,7.2,3.3c2.4-0.3,4.4-1.2,6.7-2.5C117.2,76.9,119.9,78.6,119.3,78.2z"/>
</g>
</svg>
