<svg id="LogoXSmall" xmlns="http://www.w3.org/2000/svg" width="50px" height="50px" viewBox="0 0 50 50">
<path class="cc-fil" d="M38.7,10.1c-3-1.9-6.6-2.8-10.8-2.8c-5,0-9.2,1.7-12.6,4.9c-3.5,3.4-5.3,7.4-5.3,12.3c0,5.1,1.8,9.4,5.4,12.9
	s7.9,5.2,13,5.2c3.7,0,7.4-1,11.1-2.8c1.1-0.6,2-1.2,2.8-1.8l2.3,4.3c-3,2.6-7,4.3-11.8,5.1c-1.6,0.3-3.2,0.3-4.8,0.3
	c-3.3,0-6.4-0.6-9.3-1.7s-5.4-2.6-7.6-4.6c-2.2-2-3.9-4.3-5.2-7.1S3.9,29,3.9,26.2s0.3-5.2,0.9-7.2c0.6-2.1,1.4-3.9,2.5-5.6
	c1-1.7,2.3-3.3,3.9-4.7s3.2-2.5,5-3.5c3.8-2,8-3,12.5-3c6.1,0,11.4,1.7,15.8,5.2v4.8h-5L38.7,10.1z"/>
<path class="cc-fil" d="M32.3,19.4c-1.2-0.7-2.5-1.1-4.1-1.1c-1.9,0-3.5,0.6-4.8,1.9c-1.3,1.3-2,2.8-2,4.7c0,1.9,0.7,3.6,2,4.9
	c1.4,1.3,3,2,5,2c1.4,0,2.8-0.4,4.2-1.1c0.4-0.2,0.8-0.4,1.1-0.7l0.9,1.7c-1.2,1-2.7,1.7-4.5,1.9c-0.6,0.1-1.2,0.1-1.8,0.1
	c-1.3,0-2.4-0.2-3.5-0.6c-1.1-0.4-2.1-1-2.9-1.8c-0.8-0.8-1.5-1.7-2-2.7c-0.5-1.1-0.7-2.1-0.7-3.2s0.1-2,0.3-2.8
	c0.2-0.8,0.5-1.5,0.9-2.2c0.4-0.7,0.9-1.3,1.5-1.8s1.2-1,1.9-1.3c1.4-0.8,3-1.2,4.8-1.2c2.3,0,4.3,0.7,6,2v1.8h-1.9L32.3,19.4z"/>
</svg>
